<?xml version="1.0" encoding="iso-8859-1"?>
<!-- Generator: Adobe Illustrator 19.0.0, SVG Export Plug-In . SVG Version: 6.00 Build 0)  -->
<svg xmlns="http://www.w3.org/2000/svg" xmlns:xlink="http://www.w3.org/1999/xlink" version="1.1" id="Layer_1" x="0px" y="0px" viewBox="0 0 512.001 512.001" style="enable-background:new 0 0 512.001 512.001;" xml:space="preserve">
<path style="fill:#FAEBC8;" d="M204.694,350.063v12.45c0,3.076,0.554,6.127,1.633,9.008l49.674,132.463l49.674-132.463  c1.081-2.88,1.633-5.931,1.633-9.008v-12.45H204.694z"/>
<path style="fill:#F5DCB4;" d="M204.694,350.063v12.45c0,3.076,0.554,6.127,1.633,9.008l49.674,132.463l-17.102-153.921H204.694z"/>
<rect x="204.694" y="102.079" style="fill:#FFDC64;" width="102.614" height="256.534"/>
<polygon style="fill:#FFC850;" points="307.307,102.079 204.694,102.079 204.694,358.614 256.001,358.614 256.001,127.733   307.307,127.733 "/>
<path style="fill:#FF6991;" d="M281.654,8.017h-51.307c-14.168,0-25.653,11.485-25.653,25.653v42.756h102.614V33.67  C307.307,19.502,295.822,8.017,281.654,8.017z"/>
<path style="fill:#FF507D;" d="M256.001,8.017h-25.653c-14.168,0-25.653,11.485-25.653,25.653v42.756h25.653V33.67  C230.347,19.502,241.832,8.017,256.001,8.017z"/>
<rect x="204.694" y="67.875" style="fill:#C7CFE2;" width="102.614" height="34.205"/>
<rect x="204.694" y="67.875" style="fill:#AFB9D2;" width="25.653" height="34.205"/>
<polygon style="fill:#5B5D6E;" points="285.062,426.489 226.941,426.489 256.001,503.983 "/>
<polygon style="fill:#464655;" points="226.941,426.489 256.001,503.983 247.39,426.489 "/>
<path d="M281.654,0h-51.307c-18.566,0-33.67,15.105-33.67,33.67v328.843c0,4.052,0.721,8.03,2.144,11.823l49.674,132.463  c1.174,3.129,4.164,5.202,7.506,5.202s6.333-2.073,7.506-5.202l49.674-132.462c1.423-3.793,2.144-7.772,2.144-11.823V33.67  C315.324,15.105,300.22,0,281.654,0z M264.017,350.597v-9.086c0-4.427-3.589-8.017-8.017-8.017c-4.427,0-8.017,3.589-8.017,8.017  v9.086H212.71V110.096h35.273V256c0,4.427,3.589,8.017,8.017,8.017c4.427,0,8.017-3.589,8.017-8.017V110.096h35.273v240.501H264.017  z M212.71,94.063V75.891h86.58v18.171H212.71z M230.347,16.033h51.307c9.725,0,17.637,7.912,17.637,17.637v26.188h-86.58V33.67  C212.71,23.945,220.622,16.033,230.347,16.033z M256.001,481.152l-17.292-46.112h34.584L256.001,481.152z M279.305,419.006h-46.608  l-18.863-50.301c-0.255-0.68-0.451-1.375-0.62-2.075h85.573c-0.169,0.7-0.364,1.395-0.62,2.075L279.305,419.006z"/>
<path d="M256.001,282.189c-4.427,0-8.017,3.589-8.017,8.017v17.1c0,4.427,3.589,8.017,8.017,8.017c4.427,0,8.017-3.589,8.017-8.017  v-17.1C264.017,285.778,260.428,282.189,256.001,282.189z"/>
<g>
</g>
<g>
</g>
<g>
</g>
<g>
</g>
<g>
</g>
<g>
</g>
<g>
</g>
<g>
</g>
<g>
</g>
<g>
</g>
<g>
</g>
<g>
</g>
<g>
</g>
<g>
</g>
<g>
</g>
</svg>
